<?xml version="1.0" encoding="UTF-8"?>
<svg width="16px" height="16px" viewBox="0 0 24 24" version="1.1" xmlns="http://www.w3.org/2000/svg" xmlns:xlink="http://www.w3.org/1999/xlink">
    <!-- Generator: Sketch 63.1 (92452) - https://sketch.com -->
    <title>ic_settings_active</title>
    <desc>Created with Sketch.</desc>
    <g id="ic_settings_active" stroke="none" stroke-width="1" fill="none" fill-rule="evenodd" stroke-linecap="round" stroke-linejoin="round">
        <g id="cog" stroke="#a8a8a8" stroke-width="1.5">
            <path d="M20.254,13.5 L22.5,13.5 C23.0522847,13.5 23.5,13.0522847 23.5,12.5 L23.5,11.5 C23.5,10.9477153 23.0522847,10.5 22.5,10.5 L20.253,10.5 C20.0491176,9.48639655 19.7129054,8.50398436 19.253,7.578 L20.842,5.99 C21.2323819,5.59950015 21.2323819,4.96649985 20.842,4.576 L19.424,3.162 C19.0335001,2.77161806 18.4004999,2.77161806 18.01,3.162 L16.42,4.751 C15.4947858,4.29092751 14.5130118,3.95470352 13.5,3.751 L13.5,1.5 C13.5,0.94771525 13.0522847,0.5 12.5,0.5 L11.5,0.5 C10.9477153,0.5 10.5,0.94771525 10.5,1.5 L10.5,3.749 C9.48666968,3.95270895 8.50456576,4.28893076 7.579,4.749 L5.989,3.162 C5.59850015,2.77161806 4.96549985,2.77161806 4.575,3.162 L3.16,4.577 C2.76961806,4.96749985 2.76961806,5.60050015 3.16,5.991 L4.75,7.58 C4.29040118,8.50576213 3.95420101,9.48780281 3.75,10.501 L1.5,10.501 C0.94771525,10.501 0.5,10.9487153 0.5,11.501 L0.5,12.501 C0.5,13.0532847 0.94771525,13.501 1.5,13.501 L3.746,13.501 C3.95020101,14.5141972 4.28640118,15.4962379 4.746,16.422 L3.156,18.012 C2.76561806,18.4024999 2.76561806,19.0355001 3.156,19.426 L4.575,20.84 C4.96549985,21.2303819 5.59850015,21.2303819 5.989,20.84 L7.578,19.25 C8.50398436,19.7099054 9.48639655,20.0461176 10.5,20.25 L10.5,22.5 C10.5,23.0522847 10.9477153,23.5 11.5,23.5 L12.5,23.5 C13.0522847,23.5 13.5,23.0522847 13.5,22.5 L13.5,20.255 C14.5129178,20.0509492 15.4946472,19.7147405 16.42,19.255 L18.011,20.844 C18.4014999,21.2343819 19.0345001,21.2343819 19.425,20.844 L20.839,19.43 C21.2293819,19.0395001 21.2293819,18.4064999 20.839,18.016 L19.25,16.426 C19.7113912,15.4988562 20.0489475,14.5151014 20.254,13.5 Z" id="Path"></path>
            <circle id="Oval" cx="12" cy="12.001" r="4.5"></circle>
        </g>
    </g>
</svg>
